<?xml version="1.0" encoding="utf-8"?>
<!-- Generator: Adobe Illustrator 22.0.1, SVG Export Plug-In . SVG Version: 6.00 Build 0)  -->
<svg version="1.1" id="Layer_1" xmlns="http://www.w3.org/2000/svg" xmlns:xlink="http://www.w3.org/1999/xlink" x="0px" y="0px"
	 width="150px" height="65.765px" viewBox="0 0 150 65.765" style="enable-background:new 0 0 150 65.765;" xml:space="preserve">
<style type="text/css">
	.st0{fill:#FEE875;}
	.st1{fill:#FEC10D;}
	.st2{fill:#F4A61E;}
	.st3{fill:#FFFFFF;}
</style>
<g>
	<path class="st0" d="M30.531,65.765c-0.662-0.254-1.376-0.133-2.052-0.28c-0.262-0.057-0.685,0.041-0.566-0.454
		c0.084-0.352-0.088-0.92,0.657-0.787c1.838,0.328,3.699,0.275,5.556,0.261c0.999-0.007,0.867-0.142,0.898,0.877
		c0.004,0.128,0.01,0.256,0.016,0.384C33.537,65.765,32.034,65.765,30.531,65.765z"/>
	<path class="st0" d="M0,24.8c0.264-0.937,0.523-1.875,0.793-2.81c0.13-0.452,0.286-0.896,0.42-1.348
		c0.144-0.489,0.455-0.313,0.763-0.212c0.314,0.102,0.546,0.201,0.391,0.627c-0.423,1.165-0.791,2.351-1.013,3.573
		c-0.092,0.509-0.306,0.643-0.784,0.457C0.401,25.022,0.191,25.064,0,25.058C0,24.972,0,24.886,0,24.8z"/>
	<path class="st1" d="M31.542,58.259C20.483,58.248,9.744,49.406,7.317,37.316C4.92,25.371,10.616,13.533,21.327,8.201
		c12.037-5.992,26.593-1.733,33.652,9.908c8.029,13.242,3.126,30.835-11.199,37.674C40.296,57.446,36.61,58.231,31.542,58.259z"/>
	<path class="st0" d="M33.418,61.395c-5.69-0.06-10.472-1.266-14.892-3.822c-0.168-0.097-0.602-0.095-0.346-0.511
		c0.203-0.329,0.438-0.161,0.66-0.034c3.023,1.739,6.265,2.852,9.709,3.38c2.749,0.421,5.5,0.44,8.253,0.035
		c1.612-0.237,3.198-0.582,4.743-1.107c0.21-0.071,0.457-0.223,0.561,0.153c0.082,0.298-0.117,0.378-0.327,0.449
		c-1.668,0.56-3.378,0.952-5.122,1.177C35.384,61.28,34.107,61.43,33.418,61.395z"/>
	<path class="st0" d="M61.939,31.747c-0.049,2.74-0.346,5.329-1.039,7.864c-0.063,0.232-0.044,0.634-0.493,0.485
		c-0.398-0.132-0.177-0.416-0.12-0.641c0.539-2.124,0.877-4.27,0.939-6.469c0.074-2.605-0.118-5.175-0.712-7.711
		c-0.063-0.268-0.096-0.427,0.238-0.518c0.376-0.102,0.338,0.195,0.379,0.361c0.352,1.415,0.548,2.858,0.682,4.307
		C61.889,30.235,61.903,31.051,61.939,31.747z"/>
	<path class="st0" d="M6.691,19.159c0.369,0.104,0.432,0.264,0.287,0.585c-0.326,0.722-0.631,1.456-0.903,2.2
		c-1.343,3.671-1.881,7.466-1.702,11.367c0.01,0.214,0.005,0.429,0.016,0.644c0.011,0.235-0.081,0.363-0.33,0.367
		c-0.269,0.003-0.316-0.165-0.313-0.381c0-0.021,0-0.043-0.001-0.064c-0.232-4.603,0.4-9.064,2.189-13.334
		c0.157-0.376,0.327-0.746,0.495-1.117C6.489,19.289,6.542,19.135,6.691,19.159z"/>
	<path class="st0" d="M22.247,5.048c-0.009,0.121-0.205,0.127-0.356,0.192C18.017,6.907,14.65,9.289,11.81,12.41
		c-0.403,0.443-0.772,0.917-1.163,1.371c-0.142,0.165-0.246,0.44-0.553,0.194c-0.299-0.24-0.083-0.412,0.057-0.586
		c1.659-2.065,3.547-3.893,5.688-5.456c1.772-1.294,3.668-2.369,5.687-3.226C21.995,4.508,22.262,4.595,22.247,5.048z"/>
	<path class="st0" d="M48.011,57.016c-0.265,0.042-0.355-0.085-0.426-0.217c-0.098-0.182,0.036-0.267,0.166-0.356
		c0.672-0.46,1.36-0.9,2.01-1.389c3.177-2.39,5.754-5.313,7.718-8.773c0.053-0.093,0.102-0.188,0.154-0.282
		c0.129-0.234,0.314-0.277,0.538-0.145c0.27,0.158,0.085,0.32-0.001,0.481c-0.751,1.403-1.638,2.718-2.621,3.966
		c-1.993,2.531-4.357,4.663-7.05,6.43C48.32,56.846,48.131,56.946,48.011,57.016z"/>
	<path class="st0" d="M58.804,18.611c0.063,0.25-0.066,0.307-0.18,0.36c-0.224,0.104-0.348-0.005-0.459-0.204
		c-0.429-0.767-0.851-1.539-1.312-2.287c-2.054-3.332-4.724-6.085-7.906-8.349c-0.035-0.025-0.072-0.046-0.108-0.071
		c-0.203-0.143-0.484-0.24-0.248-0.585c0.234-0.341,0.415-0.071,0.577,0.049c0.792,0.586,1.604,1.153,2.351,1.794
		c2.677,2.297,4.909,4.965,6.61,8.065C58.367,17.817,58.604,18.248,58.804,18.611z"/>
	<path class="st0" d="M13.41,53.162c-0.065,0.078-0.131,0.192-0.228,0.264c-0.196,0.147-0.327-0.037-0.432-0.145
		c-0.64-0.662-1.297-1.311-1.894-2.011c-2.53-2.965-4.431-6.291-5.652-9.999c-0.054-0.163-0.108-0.325-0.159-0.488
		c-0.07-0.226,0.011-0.363,0.238-0.441c0.253-0.086,0.298,0.104,0.355,0.256c0.317,0.84,0.596,1.696,0.941,2.525
		c1.499,3.606,3.636,6.784,6.45,9.499C13.178,52.766,13.375,52.885,13.41,53.162z"/>
	<path class="st0" d="M32.714,2.383c3.494,0.08,6.818,0.598,10.013,1.808c0.17,0.064,0.595-0.016,0.448,0.44
		c-0.143,0.442-0.398,0.241-0.656,0.149c-2.592-0.929-5.255-1.486-8.011-1.663c-2-0.129-3.974-0.017-5.947,0.272
		c-0.218,0.032-0.437,0.072-0.476-0.253c-0.037-0.3,0.134-0.342,0.378-0.381C29.901,2.52,31.35,2.43,32.714,2.383z"/>
	<path class="st0" d="M65.122,27.739c-0.237,0.028-0.399-0.02-0.435-0.355c-0.137-1.271-0.369-2.529-0.726-3.755
		c-0.185-0.636,0.252-0.618,0.618-0.773c0.51-0.216,0.468,0.189,0.532,0.439c0.306,1.196,0.599,2.394,0.72,3.628
		C65.896,27.597,65.81,27.731,65.122,27.739z"/>
	<path class="st0" d="M50.346,3.235c-0.085,0.284-0.243,0.548-0.463,0.746c-0.207,0.186-0.391-0.033-0.569-0.136
		c-1.057-0.609-2.103-1.247-3.24-1.695c-0.692-0.272-0.206-0.61-0.125-0.944c0.124-0.514,0.408-0.286,0.67-0.156
		c1.151,0.571,2.32,1.109,3.398,1.817C50.155,2.958,50.337,3.011,50.346,3.235z"/>
	<path class="st0" d="M22.237,0.815c0.048,0.214-0.114,0.237-0.256,0.289c-1.244,0.454-2.46,0.974-3.643,1.567
		c-0.504,0.253-0.557-0.15-0.732-0.427c-0.184-0.292-0.174-0.457,0.175-0.63c1.11-0.549,2.232-1.072,3.39-1.512
		C21.861-0.16,22.215,0.086,22.237,0.815z"/>
	<path class="st0" d="M7.719,52.483c-0.231,0.195-0.455,0.412-0.706,0.588c-0.22,0.155-0.362-0.043-0.474-0.189
		c-0.83-1.083-1.62-2.195-2.322-3.368c-0.247-0.412,0.117-0.52,0.346-0.673c0.227-0.152,0.468-0.336,0.691,0.043
		c0.671,1.141,1.418,2.231,2.253,3.259C7.574,52.225,7.62,52.323,7.719,52.483z"/>
	<path class="st0" d="M60.016,51.469c-0.068,0.122-0.109,0.223-0.173,0.306c-0.815,1.07-1.611,2.155-2.547,3.128
		c-0.236,0.245-0.422,0.342-0.663,0.028c-0.195-0.254-0.634-0.382-0.197-0.852c0.899-0.97,1.733-2.001,2.491-3.09
		c0.075-0.108,0.141-0.33,0.328-0.171C59.506,51.032,59.849,51.153,60.016,51.469z"/>
</g>
<g>
	<g>
		<g>
			<path class="st2" d="M81.191,15.169v-0.029c-0.021-2.881,2.165-5.335,5.265-5.358c1.543-0.011,2.574,0.348,3.52,1.017
				c0.177,0.131,0.37,0.379,0.373,0.732c0.003,0.485-0.39,0.899-0.89,0.903c-0.235,0.002-0.412-0.1-0.56-0.202
				c-0.665-0.479-1.387-0.798-2.504-0.79c-1.896,0.014-3.323,1.685-3.309,3.654l0,0.029c0.015,2.115,1.423,3.663,3.524,3.647
				c0.97-0.007,1.849-0.322,2.478-0.797l-0.014-1.925l-2.028,0.015c-0.441,0.003-0.811-0.332-0.813-0.773
				c-0.003-0.44,0.361-0.796,0.802-0.799l2.865-0.021c0.514-0.004,0.914,0.39,0.917,0.904l0.021,2.747
				c0.003,0.515-0.199,0.883-0.624,1.151c-0.877,0.594-2.108,1.132-3.651,1.144C83.345,20.443,81.213,18.166,81.191,15.169z"/>
			<path class="st2" d="M92.715,15.084v-0.029c-0.021-2.896,2.194-5.336,5.354-5.359s5.381,2.355,5.402,5.251l0,0.029
				c0.021,2.895-2.195,5.335-5.354,5.358C94.958,20.358,92.737,17.979,92.715,15.084z M101.576,15.019V14.99
				c-0.015-1.999-1.481-3.648-3.524-3.634c-2.042,0.015-3.456,1.656-3.441,3.655l0,0.029c0.015,1.998,1.481,3.633,3.523,3.618
				S101.59,17.017,101.576,15.019z"/>
			<path class="st2" d="M105.21,14.992v-0.029c-0.021-2.881,2.165-5.335,5.265-5.358c1.543-0.011,2.574,0.348,3.52,1.017
				c0.177,0.131,0.37,0.379,0.373,0.732c0.003,0.485-0.39,0.899-0.89,0.903c-0.235,0.002-0.412-0.1-0.56-0.202
				c-0.665-0.479-1.387-0.798-2.504-0.79c-1.896,0.014-3.323,1.685-3.309,3.654l0,0.029c0.015,2.115,1.422,3.663,3.523,3.647
				c0.97-0.007,1.849-0.322,2.478-0.797l-0.014-1.925l-2.028,0.015c-0.441,0.003-0.811-0.332-0.813-0.773
				c-0.003-0.44,0.361-0.796,0.802-0.799l2.865-0.021c0.514-0.004,0.914,0.39,0.917,0.904l0.021,2.747
				c0.003,0.515-0.199,0.883-0.624,1.151c-0.877,0.594-2.108,1.132-3.651,1.144C107.365,20.267,105.232,17.989,105.21,14.992z"/>
			<path class="st2" d="M117.158,10.555c-0.004-0.5,0.39-0.899,0.904-0.903c0.5-0.003,0.899,0.39,0.903,0.89l0.057,7.817
				l4.658-0.034c0.456-0.003,0.826,0.361,0.829,0.816c0.003,0.456-0.361,0.826-0.816,0.829l-5.555,0.041
				c-0.514,0.004-0.914-0.39-0.918-0.904L117.158,10.555z"/>
		</g>
		<g>
			<path class="st1" d="M81.191,15.169v-0.029c-0.021-2.881,2.165-5.335,5.265-5.358c1.543-0.011,2.574,0.348,3.52,1.017
				c0.177,0.131,0.37,0.379,0.373,0.732c0.003,0.485-0.39,0.899-0.89,0.903c-0.235,0.002-0.412-0.1-0.56-0.202
				c-0.665-0.479-1.387-0.798-2.504-0.79c-1.896,0.014-3.323,1.685-3.309,3.654l0,0.029c0.015,2.115,1.423,3.663,3.524,3.647
				c0.97-0.007,1.849-0.322,2.478-0.797l-0.014-1.925l-2.028,0.015c-0.441,0.003-0.811-0.332-0.813-0.773
				c-0.003-0.44,0.361-0.796,0.802-0.799l2.865-0.021c0.514-0.004,0.914,0.39,0.917,0.904l0.021,2.747
				c0.003,0.515-0.199,0.883-0.624,1.151c-0.877,0.594-2.108,1.132-3.651,1.144C83.345,20.443,81.213,18.166,81.191,15.169z"/>
			<path class="st1" d="M92.715,15.084v-0.029c-0.021-2.896,2.194-5.336,5.354-5.359s5.381,2.355,5.402,5.251l0,0.029
				c0.021,2.895-2.195,5.335-5.354,5.358C94.958,20.358,92.737,17.979,92.715,15.084z M101.576,15.019V14.99
				c-0.015-1.999-1.481-3.648-3.524-3.634c-2.042,0.015-3.456,1.656-3.441,3.655l0,0.029c0.015,1.998,1.481,3.633,3.523,3.618
				S101.59,17.017,101.576,15.019z"/>
			<path class="st1" d="M105.21,14.992v-0.029c-0.021-2.881,2.165-5.335,5.265-5.358c1.543-0.011,2.574,0.348,3.52,1.017
				c0.177,0.131,0.37,0.379,0.373,0.732c0.003,0.485-0.39,0.899-0.89,0.903c-0.235,0.002-0.412-0.1-0.56-0.202
				c-0.665-0.479-1.387-0.798-2.504-0.79c-1.896,0.014-3.323,1.685-3.309,3.654l0,0.029c0.015,2.115,1.422,3.663,3.523,3.647
				c0.97-0.007,1.849-0.322,2.478-0.797l-0.014-1.925l-2.028,0.015c-0.441,0.003-0.811-0.332-0.813-0.773
				c-0.003-0.44,0.361-0.796,0.802-0.799l2.865-0.021c0.514-0.004,0.914,0.39,0.917,0.904l0.021,2.747
				c0.003,0.515-0.199,0.883-0.624,1.151c-0.877,0.594-2.108,1.132-3.651,1.144C107.365,20.267,105.232,17.989,105.21,14.992z"/>
			<path class="st1" d="M117.158,10.555c-0.004-0.5,0.39-0.899,0.904-0.903c0.5-0.003,0.899,0.39,0.903,0.89l0.057,7.817
				l4.658-0.034c0.456-0.003,0.826,0.361,0.829,0.816c0.003,0.456-0.361,0.826-0.816,0.829l-5.555,0.041
				c-0.514,0.004-0.914-0.39-0.918-0.904L117.158,10.555z"/>
		</g>
	</g>
	<g>
		<path class="st3" d="M81.731,36.687c-0.206-0.146-0.353-0.396-0.353-0.69c0-0.47,0.382-0.838,0.853-0.838
			c0.25,0,0.412,0.074,0.529,0.162c0.853,0.676,1.764,1.058,2.88,1.058s1.822-0.528,1.822-1.293v-0.029
			c0-0.734-0.411-1.131-2.322-1.572c-2.189-0.529-3.423-1.176-3.423-3.071v-0.03c0-1.763,1.469-2.983,3.512-2.983
			c1.293,0,2.336,0.338,3.262,0.956c0.206,0.117,0.396,0.367,0.396,0.72c0,0.47-0.382,0.837-0.852,0.837
			c-0.176,0-0.323-0.044-0.47-0.132c-0.793-0.515-1.558-0.779-2.366-0.779c-1.058,0-1.675,0.543-1.675,1.219v0.03
			c0,0.793,0.47,1.146,2.454,1.616c2.175,0.529,3.292,1.308,3.292,3.013v0.029c0,1.925-1.514,3.07-3.674,3.07
			C84.199,37.98,82.877,37.539,81.731,36.687z"/>
		<path class="st3" d="M90.948,32.72v-0.029c0-2.895,2.233-5.32,5.393-5.32s5.363,2.396,5.363,5.29v0.03
			c0,2.895-2.233,5.319-5.393,5.319S90.948,35.614,90.948,32.72z M99.809,32.72v-0.029c0-1.999-1.455-3.659-3.497-3.659
			s-3.468,1.631-3.468,3.629v0.03c0,1.998,1.455,3.644,3.497,3.644S99.809,34.718,99.809,32.72z"/>
		<path class="st3" d="M103.898,28.4c0-0.5,0.397-0.911,0.911-0.911h0.191c0.441,0,0.691,0.22,0.94,0.529l5.143,6.657v-6.318
			c0-0.485,0.397-0.882,0.882-0.882c0.5,0,0.896,0.396,0.896,0.882v8.64c0,0.5-0.382,0.896-0.882,0.896h-0.073
			c-0.426,0-0.691-0.221-0.94-0.544l-5.29-6.847v6.524c0,0.485-0.397,0.882-0.882,0.882c-0.5,0-0.896-0.396-0.896-0.882V28.4z"/>
		<path class="st3" d="M115.512,28.4c0-0.5,0.397-0.911,0.911-0.911h0.191c0.441,0,0.691,0.22,0.94,0.529l5.143,6.657v-6.318
			c0-0.485,0.397-0.882,0.882-0.882c0.5,0,0.896,0.396,0.896,0.882v8.64c0,0.5-0.382,0.896-0.882,0.896h-0.073
			c-0.426,0-0.691-0.221-0.94-0.544l-5.29-6.847v6.524c0,0.485-0.397,0.882-0.882,0.882c-0.5,0-0.896-0.396-0.896-0.882V28.4z"/>
		<path class="st3" d="M127.125,36.922v-8.464c0-0.514,0.397-0.911,0.911-0.911h5.98c0.441,0,0.809,0.368,0.809,0.809
			c0,0.455-0.368,0.808-0.809,0.808h-5.084v2.674h4.423c0.441,0,0.808,0.367,0.808,0.822c0,0.441-0.367,0.794-0.808,0.794h-4.423
			v2.763h5.158c0.441,0,0.808,0.367,0.808,0.808c0,0.456-0.367,0.809-0.808,0.809h-6.054
			C127.522,37.833,127.125,37.437,127.125,36.922z"/>
		<path class="st3" d="M136.974,28.4c0-0.5,0.397-0.911,0.911-0.911h0.191c0.441,0,0.691,0.22,0.94,0.529l5.143,6.657v-6.318
			c0-0.485,0.397-0.882,0.882-0.882c0.5,0,0.896,0.396,0.896,0.882v8.64c0,0.5-0.382,0.896-0.882,0.896h-0.073
			c-0.426,0-0.691-0.221-0.94-0.544l-5.29-6.847v6.524c0,0.485-0.397,0.882-0.882,0.882c-0.5,0-0.896-0.396-0.896-0.882V28.4z"/>
		<path class="st3" d="M81.731,54.327c-0.206-0.146-0.353-0.396-0.353-0.69c0-0.47,0.382-0.838,0.853-0.838
			c0.25,0,0.412,0.074,0.529,0.162c0.853,0.676,1.764,1.058,2.88,1.058s1.822-0.528,1.822-1.293v-0.029
			c0-0.734-0.411-1.131-2.322-1.572c-2.189-0.529-3.423-1.176-3.423-3.071v-0.029c0-1.763,1.469-2.982,3.512-2.982
			c1.293,0,2.336,0.338,3.262,0.955c0.206,0.117,0.396,0.367,0.396,0.72c0,0.471-0.382,0.838-0.852,0.838
			c-0.176,0-0.323-0.044-0.47-0.133c-0.793-0.514-1.558-0.778-2.366-0.778c-1.058,0-1.675,0.544-1.675,1.22v0.029
			c0,0.793,0.47,1.146,2.454,1.616c2.175,0.529,3.292,1.308,3.292,3.013v0.029c0,1.925-1.514,3.07-3.674,3.07
			C84.199,55.62,82.877,55.18,81.731,54.327z"/>
		<path class="st3" d="M90.948,50.361v-0.029c0-2.925,2.189-5.319,5.304-5.319c1.587,0,2.63,0.47,3.527,1.16
			c0.191,0.147,0.353,0.397,0.353,0.721c0,0.499-0.396,0.881-0.896,0.881c-0.25,0-0.426-0.088-0.543-0.176
			c-0.706-0.573-1.469-0.926-2.454-0.926c-1.954,0-3.394,1.616-3.394,3.629v0.03c0,2.013,1.425,3.644,3.394,3.644
			c1.087,0,1.822-0.353,2.572-0.984c0.132-0.117,0.323-0.206,0.543-0.206c0.456,0,0.853,0.383,0.853,0.838
			c0,0.279-0.132,0.5-0.294,0.646c-0.97,0.853-2.072,1.382-3.732,1.382C93.182,55.651,90.948,53.314,90.948,50.361z"/>
		<path class="st3" d="M102.252,46.011c0-0.5,0.397-0.896,0.911-0.896c0.5,0,0.896,0.396,0.896,0.896v3.453h4.908v-3.453
			c0-0.5,0.397-0.896,0.896-0.896c0.514,0,0.911,0.396,0.911,0.896v8.64c0,0.5-0.397,0.896-0.911,0.896
			c-0.5,0-0.896-0.396-0.896-0.896v-3.512h-4.908v3.512c0,0.5-0.397,0.896-0.896,0.896c-0.514,0-0.911-0.396-0.911-0.896V46.011z"/>
		<path class="st3" d="M113.528,46.011c0-0.5,0.397-0.896,0.911-0.896c0.5,0,0.896,0.396,0.896,0.896v8.64
			c0,0.5-0.397,0.896-0.896,0.896c-0.514,0-0.911-0.396-0.911-0.896V46.011z"/>
		<path class="st3" d="M118.084,46.099c0-0.515,0.397-0.911,0.911-0.911h3.674c1.293,0,2.307,0.382,2.968,1.028
			c0.543,0.559,0.852,1.323,0.852,2.22v0.029c0,1.646-0.955,2.645-2.336,3.07l1.969,2.483c0.176,0.221,0.294,0.412,0.294,0.691
			c0,0.499-0.426,0.837-0.867,0.837c-0.412,0-0.676-0.19-0.882-0.47l-2.498-3.188h-2.278v2.762c0,0.5-0.397,0.896-0.896,0.896
			c-0.514,0-0.911-0.396-0.911-0.896V46.099z M122.537,50.286c1.293,0,2.116-0.676,2.116-1.719v-0.029
			c0-1.103-0.793-1.705-2.13-1.705h-2.63v3.453H122.537z"/>
		<path class="st3" d="M128.713,46.04c0-0.5,0.397-0.911,0.911-0.911h0.191c0.397,0,0.662,0.206,0.838,0.485l3.115,4.878l3.13-4.893
			c0.191-0.309,0.456-0.471,0.823-0.471h0.191c0.514,0,0.911,0.411,0.911,0.911v8.61c0,0.5-0.397,0.896-0.911,0.896
			c-0.485,0-0.896-0.411-0.896-0.896V48.48l-2.513,3.776c-0.191,0.294-0.426,0.47-0.764,0.47c-0.323,0-0.558-0.176-0.749-0.47
			l-2.498-3.747v6.156c0,0.5-0.397,0.882-0.896,0.882s-0.882-0.382-0.882-0.882V46.04z"/>
		<path class="st3" d="M141.473,54.563v-8.464c0-0.515,0.397-0.911,0.911-0.911h5.98c0.441,0,0.809,0.367,0.809,0.809
			c0,0.455-0.368,0.808-0.809,0.808h-5.084v2.675h4.423c0.441,0,0.808,0.367,0.808,0.822c0,0.441-0.367,0.794-0.808,0.794h-4.423
			v2.763h5.158c0.441,0,0.808,0.367,0.808,0.808c0,0.456-0.367,0.809-0.808,0.809h-6.054
			C141.87,55.474,141.473,55.077,141.473,54.563z"/>
	</g>
</g>
</svg>
