<?xml version="1.0" encoding="utf-8"?>
<!-- Generator: Adobe Illustrator 25.0.0, SVG Export Plug-In . SVG Version: 6.00 Build 0)  -->
<svg version="1.1" id="Layer_1" xmlns="http://www.w3.org/2000/svg" xmlns:xlink="http://www.w3.org/1999/xlink" x="0px" y="0px"
	 viewBox="0 0 306.7 92.2" style="enable-background:new 0 0 306.7 92.2;" xml:space="preserve">
<style type="text/css">
	.st0{fill:#1C64F2;}
</style>
<path class="st0" d="M135.6,18c-11.7,0-21.2,9.5-21.2,21.2s9.5,21.2,21.2,21.2s21.2-9.5,21.2-21.2l0,0C156.8,27.5,147.3,18,135.6,18
	z M135.6,49.8c-5.9,0-10.6-4.7-10.6-10.6c0-5.9,4.7-10.6,10.6-10.6s10.6,4.7,10.6,10.6C146.2,45.1,141.5,49.8,135.6,49.8z"/>
<circle class="st0" cx="135.6" cy="81.6" r="10.6"/>
<path class="st0" d="M32.8,26.7c-0.9,1-2.2,2.4-3.7,4.1c-1.5,1.7-3.2,3.6-5,5.7s-3.6,4.3-5.4,6.6s-3.4,4.5-4.9,6.6h19.4v9.4H0v-6.7
	c1.1-1.8,2.3-3.8,3.8-5.9s3.1-4.2,4.7-6.4s3.3-4.2,4.9-6.2s3.1-3.8,4.5-5.4h-17V19h31.8L32.8,26.7L32.8,26.7z"/>
<path class="st0" d="M37.7,39.4c-0.1-3.2,0.5-6.3,1.6-9.3c1-2.5,2.4-4.8,4.3-6.7c1.7-1.7,3.8-3.1,6.1-4c2.3-0.9,4.7-1.4,7.1-1.4
	c5.7,0,10.2,1.7,13.5,5.2s5,8.6,5,15.4c0,0.7,0,1.5-0.1,2.2c-0.1,0.8-0.1,1.5-0.2,2.1H49.4c0.2,2.3,1.4,4.3,3.3,5.6
	c2.3,1.5,5,2.3,7.8,2.1c2,0,4.1-0.2,6.1-0.6c1.7-0.3,3.3-0.8,4.9-1.4l1.5,9.2c-0.8,0.4-1.6,0.7-2.4,0.9c-1.1,0.3-2.2,0.6-3.4,0.8
	c-1.2,0.2-2.6,0.4-4,0.6c-1.4,0.2-2.9,0.2-4.3,0.2c-3.2,0.1-6.4-0.5-9.4-1.6c-5-1.9-8.9-5.9-10.5-11C38.1,45,37.7,42.2,37.7,39.4z
	 M64.4,35c-0.1-0.9-0.2-1.9-0.5-2.8c-0.3-0.9-0.7-1.7-1.3-2.4c-0.6-0.7-1.4-1.3-2.2-1.8c-1-0.5-2.2-0.8-3.3-0.7
	c-1.1,0-2.3,0.2-3.3,0.6c-0.9,0.4-1.7,1-2.3,1.7c-0.6,0.7-1.1,1.6-1.4,2.5C49.8,33,49.5,34,49.4,35H64.4z"/>
<path class="st0" d="M108.3,29.1c-1-0.3-2.2-0.5-3.6-0.8c-1.4-0.3-2.9-0.4-4.4-0.4c-0.7,0-1.6,0.1-2.6,0.2c-0.7,0.1-1.5,0.2-2.2,0.4
	v30.6H84.1V21.2c2.4-0.8,4.8-1.5,7.2-2c3.1-0.7,6.2-1,9.3-1c0.7,0,1.5,0,2.2,0.1l2.6,0.3c0.9,0.1,1.7,0.3,2.6,0.5
	c0.7,0.2,1.5,0.4,2.2,0.6L108.3,29.1z"/>
<path class="st0" d="M180.8,59.9c-2.7,0-5.4-0.3-8-1.1c-1.8-0.6-3.5-1.5-4.9-2.8c-1.2-1.2-2-2.7-2.4-4.3c-0.4-1.9-0.6-3.8-0.6-5.8
	V1.8L176.1,0v43.7c0,0.9,0.1,1.8,0.2,2.7c0.1,0.8,0.4,1.5,0.9,2.1c0.5,0.6,1.2,1.1,1.9,1.4c1,0.4,2.2,0.7,3.3,0.7L180.8,59.9z"/>
<path class="st0" d="M186.9,39.4c-0.1-3.2,0.5-6.3,1.6-9.3c1-2.5,2.4-4.8,4.3-6.7c1.7-1.7,3.8-3.1,6.1-4c2.3-0.9,4.7-1.4,7.1-1.4
	c5.7,0,10.2,1.7,13.5,5.2s5,8.6,5,15.4c0,0.7,0,1.5-0.1,2.2c-0.1,0.8-0.1,1.5-0.2,2.1h-25.8c0.2,2.3,1.4,4.3,3.3,5.6
	c2.3,1.5,5,2.3,7.8,2.1c2,0,4.1-0.2,6.1-0.6c1.7-0.3,3.3-0.8,4.9-1.4l1.5,9.2c-0.8,0.4-1.6,0.7-2.4,0.9c-1.1,0.3-2.2,0.6-3.4,0.8
	l-4,0.6c-1.4,0.2-2.9,0.2-4.3,0.2c-3.2,0.1-6.4-0.5-9.4-1.6c-5-1.9-8.9-5.9-10.5-11C187.3,45,186.9,42.2,186.9,39.4z M213.6,35
	c-0.1-0.9-0.2-1.9-0.5-2.8c-0.3-0.9-0.7-1.7-1.3-2.4c-0.6-0.7-1.4-1.3-2.2-1.8c-1-0.5-2.2-0.8-3.3-0.7c-1.1,0-2.3,0.2-3.3,0.6
	c-0.9,0.4-1.7,1-2.3,1.7c-0.6,0.7-1.1,1.6-1.4,2.5c-0.3,0.9-0.6,1.9-0.7,2.9L213.6,35z"/>
<path class="st0" d="M233.3,20.4c2.5-0.7,5-1.2,7.5-1.6c3.2-0.5,6.4-0.7,9.6-0.7c2.9-0.1,5.8,0.3,8.5,1.3c2.1,0.8,4,2.1,5.4,3.8
	c1.4,1.7,2.3,3.7,2.8,5.8c0.6,2.5,0.9,5,0.8,7.5v22.6h-11.4V37.9c0-3.7-0.5-6.2-1.4-7.8s-2.8-2.3-5.4-2.3c-0.9,0-1.7,0-2.6,0.1
	c-0.9,0.1-1.7,0.2-2.4,0.3v30.9h-11.4V20.4z"/>
<path class="st0" d="M289.7,51c1.5,0.1,3-0.1,4.4-0.6c0.9-0.4,1.4-1.4,1.3-2.4c-0.1-1-0.8-2-1.7-2.4c-1.6-1-3.3-1.7-5.1-2.3
	c-1.6-0.6-3.3-1.3-4.8-2.1c-1.4-0.7-2.6-1.5-3.7-2.6c-1-1-1.8-2.2-2.4-3.5c-0.6-1.6-0.9-3.3-0.8-5c-0.1-3.5,1.4-6.8,4.2-8.9
	c2.8-2.2,6.6-3.3,11.5-3.3c2.3,0,4.7,0.2,7,0.6c1.8,0.3,3.6,0.8,5.3,1.4l-2,8.8c-1.4-0.5-2.8-0.9-4.3-1.2c-1.7-0.4-3.5-0.5-5.2-0.5
	c-3.6,0-5.3,1-5.3,3c0,0.4,0.1,0.8,0.2,1.2c0.2,0.4,0.5,0.7,0.9,1c0.5,0.3,1.1,0.7,1.9,1.1s1.8,0.8,3,1.3c2.1,0.8,4.2,1.7,6.2,2.7
	c1.4,0.8,2.7,1.7,3.8,2.9c0.9,1,1.6,2.2,2,3.5c0.4,1.4,0.6,2.9,0.6,4.4c0.2,3.6-1.5,7-4.5,9c-3,2-7.2,3-12.6,3c-3,0.1-6-0.2-8.9-0.9
	c-1.7-0.4-3.3-0.9-4.9-1.5l1.9-9.2c1.9,0.8,3.9,1.4,5.9,1.8C285.6,50.8,287.6,51,289.7,51z"/>
</svg>
